<svg id="mermaidChart161" width="100%" xmlns="http://www.w3.org/2000/svg" height="100%" style="max-width:770px;" viewBox="-170 -10 770 1093"><style type="text/css" title="mermaid-svg-internal-css">/*  */
.actor { stroke: rgb(19, 84, 12); fill: rgb(205, 228, 152);}
text.actor { fill: rgb(0, 0, 0); stroke: none;}
.actor-line { stroke: grey;}
.messageLine0 { }
.messageLine0, .messageLine1 { stroke-width: 1.5; stroke: rgb(51, 51, 51);}
#arrowhead { fill: rgb(51, 51, 51);}
#crosshead path { fill: rgb(51, 51, 51) !important; stroke: rgb(51, 51, 51) !important;}
.messageText { fill: rgb(51, 51, 51); stroke: none;}
.labelBox { stroke: rgb(50, 105, 50); fill: rgb(205, 228, 152);}
.labelText, .loopText { fill: rgb(0, 0, 0); stroke: none;}
.loopLine { stroke-width: 2; stroke: rgb(50, 105, 50);}
.note { stroke: rgb(110, 170, 73); fill: rgb(255, 245, 173);}
.noteText { fill: rgb(0, 0, 0); stroke: none; font-family: "trebuchet ms", verdana, arial; font-size: 14px;}
* { -webkit-tap-highlight-color: rgba(0, 0, 0, 0);}
*, ::after, ::before { box-sizing: border-box;}
/*  */
</style><g></g><g><line id="actor487" x1="75" y1="5" x2="75" y2="1082" class="actor-line" stroke-width="0.5px" stroke="#999"></line><rect x="0" y="0" fill="#eaeaea" stroke="#666" width="150" height="65" rx="3" ry="3" class="actor"></rect><text x="75" y="32.5" dominant-baseline="central" alignment-baseline="central" class="actor" style="text-anchor: middle;"><tspan x="75" dy="0">OrderManager</tspan></text></g><g><line id="actor488" x1="275" y1="5" x2="275" y2="1082" class="actor-line" stroke-width="0.5px" stroke="#999"></line><rect x="200" y="0" fill="#eaeaea" stroke="#666" width="150" height="65" rx="3" ry="3" class="actor"></rect><text x="275" y="32.5" dominant-baseline="central" alignment-baseline="central" class="actor" style="text-anchor: middle;"><tspan x="275" dy="0">Lightrail</tspan></text></g><g><line id="actor489" x1="475" y1="5" x2="475" y2="1082" class="actor-line" stroke-width="0.5px" stroke="#999"></line><rect x="400" y="0" fill="#eaeaea" stroke="#666" width="150" height="65" rx="3" ry="3" class="actor"></rect><text x="475" y="32.5" dominant-baseline="central" alignment-baseline="central" class="actor" style="text-anchor: middle;"><tspan x="475" dy="0">PaymentGateway</tspan></text></g><defs><marker id="arrowhead" refX="5" refY="2" markerWidth="6" markerHeight="4" orient="auto"><path d="M 0,0 V 4 L6,2 Z"></path></marker></defs><defs><marker id="crosshead" markerWidth="15" markerHeight="8" orient="auto" refX="16" refY="4"><path fill="black" stroke="#000000" stroke-width="1px" d="M 9,2 V 6 L16,4 Z" style="stroke-dasharray: 0, 0;"></path><path fill="none" stroke="#000000" stroke-width="1px" d="M 0,1 L 6,7 M 6,1 L 0,7" style="stroke-dasharray: 0, 0;"></path></marker></defs><g><rect x="-100" y="75" fill="#EDF2AE" stroke="#666" width="150" height="57" rx="0" ry="0" class="note"></rect><text x="-84" y="103" fill="black" class="noteText"><tspan x="-84">determine</tspan><tspan dy="21" x="-84">orderTotal</tspan></text></g><g><rect x="-100" y="142" fill="#EDF2AE" stroke="#666" width="150" height="57" rx="0" ry="0" class="note"></rect><text x="-84" y="170" fill="black" class="noteText"><tspan x="-84">capture Gift Card</tspan><tspan dy="21" x="-84">fullcode</tspan></text></g><g><text x="175" y="227" class="messageText" style="text-anchor: middle;">get balance(fullcode)</text><line x1="75" y1="234" x2="275" y2="234" class="messageLine0" stroke-width="2" stroke="black" marker-end="url(#arrowhead)" style="fill: none;"></line></g><g><text x="175" y="262" class="messageText" style="text-anchor: middle;">giftValue</text><line x1="275" y1="269" x2="75" y2="269" class="messageLine1" stroke-width="2" stroke="black" marker-end="url(#arrowhead)" style="stroke-dasharray: 3, 3; fill: none;"></line></g><g><rect x="-100" y="279" fill="#EDF2AE" stroke="#666" width="150" height="57" rx="0" ry="0" class="note"></rect><text x="-84" y="307" fill="black" class="noteText"><tspan x="-84">remainder=</tspan><tspan dy="21" x="-84">orderTotal—giftValue</tspan></text></g><g><text x="175" y="389" class="messageText" style="text-anchor: middle;">drawdown (fullcode, orderTotal)</text><line x1="75" y1="396" x2="275" y2="396" class="messageLine0" stroke-width="2" stroke="black" marker-end="url(#arrowhead)" style="fill: none;"></line></g><g><text x="175" y="424" class="messageText" style="text-anchor: middle;">result</text><line x1="275" y1="431" x2="75" y2="431" class="messageLine1" stroke-width="2" stroke="black" marker-end="url(#arrowhead)" style="stroke-dasharray: 3, 3; fill: none;"></line></g><g><rect x="-100" y="441" fill="#EDF2AE" stroke="#666" width="150" height="57" rx="0" ry="0" class="note"></rect><text x="-84" y="469" fill="black" class="noteText"><tspan x="-84">mark order as</tspan><tspan dy="21" x="-84">complete</tspan></text></g><g><text x="175" y="546" class="messageText" style="text-anchor: middle;">drawdown (fullcode, giftValue, pending=true)</text><line x1="75" y1="553" x2="275" y2="553" class="messageLine0" stroke-width="2" stroke="black" marker-end="url(#arrowhead)" style="fill: none;"></line></g><g><text x="175" y="581" class="messageText" style="text-anchor: middle;">transactionId, cardId</text><line x1="275" y1="588" x2="75" y2="588" class="messageLine1" stroke-width="2" stroke="black" marker-end="url(#arrowhead)" style="stroke-dasharray: 3, 3; fill: none;"></line></g><g><text x="275" y="616" class="messageText" style="text-anchor: middle;">charge (remainder)</text><line x1="75" y1="623" x2="475" y2="623" class="messageLine0" stroke-width="2" stroke="black" marker-end="url(#arrowhead)" style="fill: none;"></line></g><g><text x="275" y="651" class="messageText" style="text-anchor: middle;">result</text><line x1="475" y1="658" x2="75" y2="658" class="messageLine1" stroke-width="2" stroke="black" marker-end="url(#arrowhead)" style="stroke-dasharray: 3, 3; fill: none;"></line></g><g><text x="175" y="711" class="messageText" style="text-anchor: middle;">capture (cardId, transactionId)</text><line x1="75" y1="718" x2="275" y2="718" class="messageLine0" stroke-width="2" stroke="black" marker-end="url(#arrowhead)" style="fill: none;"></line></g><g><text x="175" y="746" class="messageText" style="text-anchor: middle;">result</text><line x1="275" y1="753" x2="75" y2="753" class="messageLine1" stroke-width="2" stroke="black" marker-end="url(#arrowhead)" style="stroke-dasharray: 3, 3; fill: none;"></line></g><g><rect x="-100" y="763" fill="#EDF2AE" stroke="#666" width="150" height="57" rx="0" ry="0" class="note"></rect><text x="-84" y="791" fill="black" class="noteText"><tspan x="-84">mark order as</tspan><tspan dy="21" x="-84">complete</tspan></text></g><g><text x="175" y="868" class="messageText" style="text-anchor: middle;">void (cardId, transactionId)</text><line x1="75" y1="875" x2="275" y2="875" class="messageLine0" stroke-width="2" stroke="black" marker-end="url(#arrowhead)" style="fill: none;"></line></g><g><text x="175" y="903" class="messageText" style="text-anchor: middle;">result</text><line x1="275" y1="910" x2="75" y2="910" class="messageLine1" stroke-width="2" stroke="black" marker-end="url(#arrowhead)" style="stroke-dasharray: 3, 3; fill: none;"></line></g><g><rect x="-100" y="920" fill="#EDF2AE" stroke="#666" width="150" height="57" rx="0" ry="0" class="note"></rect><text x="-84" y="948" fill="black" class="noteText"><tspan x="-84">order payment</tspan><tspan dy="21" x="-84">failed.</tspan></text></g><g><line x1="-110" y1="668" x2="285" y2="668" class="loopLine"></line><line x1="285" y1="668" x2="285" y2="987" class="loopLine"></line><line x1="-110" y1="987" x2="285" y2="987" class="loopLine"></line><line x1="-110" y1="668" x2="-110" y2="987" class="loopLine"></line><line x1="-110" y1="830" x2="285" y2="830" class="loopLine" style="stroke-dasharray: 3, 3;"></line><polygon points="-110,668 -60,668 -60,681 -68.4,688 -110,688" class="labelBox"></polygon><text x="-102.5" y="683" fill="black" class="labelText"><tspan x="-102.5" fill="black">alt</tspan></text><text x="87.5" y="683" fill="black" class="loopText" style="text-anchor: middle;"><tspan x="87.5" fill="black">[ third-party payment successful ]</tspan></text><text x="87.5" y="845" fill="black" class="loopText" style="text-anchor: middle;"><tspan x="87.5" fill="black">[ third-party payment failed ]</tspan></text></g><g><line x1="-120" y1="346" x2="485" y2="346" class="loopLine"></line><line x1="485" y1="346" x2="485" y2="997" class="loopLine"></line><line x1="-120" y1="997" x2="485" y2="997" class="loopLine"></line><line x1="-120" y1="346" x2="-120" y2="997" class="loopLine"></line><line x1="-120" y1="508" x2="485" y2="508" class="loopLine" style="stroke-dasharray: 3, 3;"></line><polygon points="-120,346 -70,346 -70,359 -78.4,366 -120,366" class="labelBox"></polygon><text x="-112.5" y="361" fill="black" class="labelText"><tspan x="-112.5" fill="black">alt</tspan></text><text x="182.5" y="361" fill="black" class="loopText" style="text-anchor: middle;"><tspan x="182.5" fill="black">[ remainder &lt;= 0 ]</tspan></text><text x="182.5" y="523" fill="black" class="loopText" style="text-anchor: middle;"><tspan x="182.5" fill="black">[ remainder &gt; 0 ]</tspan></text></g><g><rect x="0" y="1017" fill="#eaeaea" stroke="#666" width="150" height="65" rx="3" ry="3" class="actor"></rect><text x="75" y="1049.5" dominant-baseline="central" alignment-baseline="central" class="actor" style="text-anchor: middle;"><tspan x="75" dy="0">OrderManager</tspan></text></g><g><rect x="200" y="1017" fill="#eaeaea" stroke="#666" width="150" height="65" rx="3" ry="3" class="actor"></rect><text x="275" y="1049.5" dominant-baseline="central" alignment-baseline="central" class="actor" style="text-anchor: middle;"><tspan x="275" dy="0">Lightrail</tspan></text></g><g><rect x="400" y="1017" fill="#eaeaea" stroke="#666" width="150" height="65" rx="3" ry="3" class="actor"></rect><text x="475" y="1049.5" dominant-baseline="central" alignment-baseline="central" class="actor" style="text-anchor: middle;"><tspan x="475" dy="0">PaymentGateway</tspan></text></g></svg>