<svg id="mermaidChart1" width="100%" xmlns="http://www.w3.org/2000/svg" height="100%" style="max-width:770px;" viewBox="-170 -10 770 935"><style type="text/css" title="mermaid-svg-internal-css">/*  */
*, ::before, ::after { box-sizing: inherit;}
.actor { stroke: rgb(204, 204, 255); fill: rgb(226, 236, 255);}
text.actor { fill: black; stroke: none; font-size: 12px;}
.actor-line { stroke: grey;}
.messageLine0 { stroke-width: 1.5; stroke: black;}
.messageLine1 { stroke-width: 1.5; stroke: black;}
#arrowhead { fill: black;}
.messageText { fill: black; stroke: none; font-size: 12px;}
.labelBox { stroke: rgb(204, 204, 255); fill: rgb(236, 236, 255);}
.labelText { fill: black; stroke: none;}
.loopText { fill: black; stroke: none;}
.loopLine { stroke-width: 2; stroke: rgb(204, 204, 255);}
.note { stroke: rgb(204, 204, 255); fill: rgb(255, 245, 173);}
.noteText { fill: black; stroke: none; font-size: 12px;}
.actor { stroke: rgb(204, 204, 255); fill: rgb(236, 236, 255);}
text.actor { fill: black; stroke: none;}
.actor-line { stroke: grey;}
.messageLine0 { stroke-width: 1.5; stroke: rgb(51, 51, 51);}
.messageLine1 { stroke-width: 1.5; stroke: rgb(51, 51, 51);}
#arrowhead { fill: rgb(51, 51, 51);}
#crosshead path { fill: rgb(51, 51, 51) !important; stroke: rgb(51, 51, 51) !important;}
.messageText { fill: rgb(51, 51, 51); stroke: none;}
.labelBox { stroke: rgb(204, 204, 255); fill: rgb(236, 236, 255);}
.labelText { fill: black; stroke: none;}
.loopText { fill: black; stroke: none;}
.loopLine { stroke-width: 2; stroke: rgb(204, 204, 255);}
.note { stroke: rgb(170, 170, 51); fill: rgb(255, 245, 173);}
.noteText { fill: black; stroke: none; font-family: "trebuchet ms", verdana, arial; font-size: 14px;}
text { font-family: "trebuchet ms", verdana, arial; font-size: 14px;}
/*  */
</style><g></g><g><line id="actor3" x1="75" y1="5" x2="75" y2="924" class="actor-line" stroke-width="0.5px" stroke="#999"></line><rect x="0" y="0" fill="#eaeaea" stroke="#666" width="150" height="65" rx="3" ry="3" class="actor"></rect><text x="75" y="37.5" class="actor" style="text-anchor: middle;">YourOrderManager</text></g><g><line id="actor4" x1="275" y1="5" x2="275" y2="924" class="actor-line" stroke-width="0.5px" stroke="#999"></line><rect x="200" y="0" fill="#eaeaea" stroke="#666" width="150" height="65" rx="3" ry="3" class="actor"></rect><text x="275" y="37.5" class="actor" style="text-anchor: middle;">Lightrail</text></g><g><line id="actor5" x1="475" y1="5" x2="475" y2="924" class="actor-line" stroke-width="0.5px" stroke="#999"></line><rect x="400" y="0" fill="#eaeaea" stroke="#666" width="150" height="65" rx="3" ry="3" class="actor"></rect><text x="475" y="37.5" class="actor" style="text-anchor: middle;">PaymentGateway</text></g><defs><marker id="arrowhead" refX="5" refY="2" markerWidth="6" markerHeight="4" orient="auto"><path d="M 0,0 V 4 L6,2 Z"></path></marker></defs><defs><marker id="crosshead" markerWidth="15" markerHeight="8" orient="auto" refX="16" refY="4"><path fill="black" stroke="#000000" stroke-width="1px" d="M 9,2 V 6 L16,4 Z" style="stroke-dasharray: 0, 0;"></path><path fill="none" stroke="#000000" stroke-width="1px" d="M 0,1 L 6,7 M 6,1 L 0,7" style="stroke-dasharray: 0, 0;"></path></marker></defs><g><rect x="-100" y="75" fill="#EDF2AE" stroke="#666" width="150" height="57" rx="0" ry="0" class="note"></rect><text x="-84" y="103" fill="black" class="noteText"><tspan x="-84">determine</tspan><tspan dy="21" x="-84">orderBalance</tspan></text></g><g><rect x="-100" y="142" fill="#EDF2AE" stroke="#666" width="150" height="36" rx="0" ry="0" class="note"></rect><text x="-84" y="170" fill="black" class="noteText"><tspan x="-84">grab gift code</tspan></text></g><g><text x="175" y="206" class="messageText" style="text-anchor: middle;">get balance (giftCode)</text><line x1="75" y1="213" x2="275" y2="213" class="messageLine0" stroke-width="2" stroke="black" marker-end="url(#arrowhead)" style="fill: none;"></line></g><g><text x="175" y="241" class="messageText" style="text-anchor: middle;">giftCodeValue</text><line x1="275" y1="248" x2="75" y2="248" class="messageLine1" stroke-width="2" stroke="black" marker-end="url(#arrowhead)" style="stroke-dasharray: 3, 3; fill: none;"></line></g><g><text x="175" y="301" class="messageText" style="text-anchor: middle;">charge (giftCode, orderBalance)</text><line x1="75" y1="308" x2="275" y2="308" class="messageLine0" stroke-width="2" stroke="black" marker-end="url(#arrowhead)" style="fill: none;"></line></g><g><text x="175" y="336" class="messageText" style="text-anchor: middle;">result</text><line x1="275" y1="343" x2="75" y2="343" class="messageLine1" stroke-width="2" stroke="black" marker-end="url(#arrowhead)" style="stroke-dasharray: 3, 3; fill: none;"></line></g><g><rect x="-100" y="353" fill="#EDF2AE" stroke="#666" width="150" height="57" rx="0" ry="0" class="note"></rect><text x="-84" y="381" fill="black" class="noteText"><tspan x="-84">mark order as</tspan><tspan dy="21" x="-84">complete</tspan></text></g><g><rect x="-100" y="440" fill="#EDF2AE" stroke="#666" width="150" height="57" rx="0" ry="0" class="note"></rect><text x="-84" y="468" fill="black" class="noteText"><tspan x="-84">determine</tspan><tspan dy="21" x="-84">giftCodeShare</tspan></text></g><g><text x="175" y="525" class="messageText" style="text-anchor: middle;">charge(giftCode, giftCodeShare, pending=true)</text><line x1="75" y1="532" x2="275" y2="532" class="messageLine0" stroke-width="2" stroke="black" marker-end="url(#arrowhead)" style="fill: none;"></line></g><g><text x="175" y="560" class="messageText" style="text-anchor: middle;">transactionId, cardId</text><line x1="275" y1="567" x2="75" y2="567" class="messageLine1" stroke-width="2" stroke="black" marker-end="url(#arrowhead)" style="stroke-dasharray: 3, 3; fill: none;"></line></g><g><text x="275" y="595" class="messageText" style="text-anchor: middle;">charge (orderBalance - giftCodeShare)</text><line x1="75" y1="602" x2="475" y2="602" class="messageLine0" stroke-width="2" stroke="black" marker-end="url(#arrowhead)" style="fill: none;"></line></g><g><text x="275" y="630" class="messageText" style="text-anchor: middle;">result</text><line x1="475" y1="637" x2="75" y2="637" class="messageLine1" stroke-width="2" stroke="black" marker-end="url(#arrowhead)" style="stroke-dasharray: 3, 3; fill: none;"></line></g><g><text x="175" y="690" class="messageText" style="text-anchor: middle;">capture charge (cardId, transactionId)</text><line x1="75" y1="697" x2="275" y2="697" class="messageLine0" stroke-width="2" stroke="black" marker-end="url(#arrowhead)" style="fill: none;"></line></g><g><text x="175" y="745" class="messageText" style="text-anchor: middle;">void charge (cardId, transactionId)</text><line x1="75" y1="752" x2="275" y2="752" class="messageLine0" stroke-width="2" stroke="black" marker-end="url(#arrowhead)" style="fill: none;"></line></g><g><rect x="-100" y="762" fill="#EDF2AE" stroke="#666" width="150" height="57" rx="0" ry="0" class="note"></rect><text x="-84" y="790" fill="black" class="noteText"><tspan x="-84">order payment</tspan><tspan dy="21" x="-84">failed.</tspan></text></g><g><line x1="-110" y1="647" x2="285" y2="647" stroke-width="2" stroke="#526e52" class="loopLine"></line><line x1="285" y1="647" x2="285" y2="829" stroke-width="2" stroke="#526e52" class="loopLine"></line><line x1="-110" y1="829" x2="285" y2="829" stroke-width="2" stroke="#526e52" class="loopLine"></line><line x1="-110" y1="647" x2="-110" y2="829" stroke-width="2" stroke="#526e52" class="loopLine"></line><line x1="-110" y1="707" x2="285" y2="707" stroke-width="2" stroke="#526e52" class="loopLine"></line><rect x="-110" y="647" fill="#526e52" stroke="none" width="50" height="20" rx="0" ry="0" class="labelBox"></rect><text x="-102.5" y="662" fill="white" class="labelText"><tspan x="-102.5">alt</tspan></text><text x="87.5" y="662" fill="black" class="loopText" style="text-anchor: middle;"><tspan x="87.5">[ third-party payment successful ]</tspan></text><text x="87.5" y="722" fill="black" class="loopText" style="text-anchor: middle;"><tspan x="87.5">[ third-party payment failed ]</tspan></text></g><g><line x1="-120" y1="258" x2="485" y2="258" stroke-width="2" stroke="#526e52" class="loopLine"></line><line x1="485" y1="258" x2="485" y2="839" stroke-width="2" stroke="#526e52" class="loopLine"></line><line x1="-120" y1="839" x2="485" y2="839" stroke-width="2" stroke="#526e52" class="loopLine"></line><line x1="-120" y1="258" x2="-120" y2="839" stroke-width="2" stroke="#526e52" class="loopLine"></line><line x1="-120" y1="420" x2="485" y2="420" stroke-width="2" stroke="#526e52" class="loopLine"></line><rect x="-120" y="258" fill="#526e52" stroke="none" width="50" height="20" rx="0" ry="0" class="labelBox"></rect><text x="-112.5" y="273" fill="white" class="labelText"><tspan x="-112.5">alt</tspan></text><text x="182.5" y="273" fill="black" class="loopText" style="text-anchor: middle;"><tspan x="182.5">[ giftCodeValue &gt;= orderBalance ]</tspan></text><text x="182.5" y="435" fill="black" class="loopText" style="text-anchor: middle;"><tspan x="182.5">[ giftCodeValue &lt; orderBalance ]</tspan></text></g><g><rect x="0" y="859" fill="#eaeaea" stroke="#666" width="150" height="65" rx="3" ry="3" class="actor"></rect><text x="75" y="896.5" class="actor" style="text-anchor: middle;">YourOrderManager</text></g><g><rect x="200" y="859" fill="#eaeaea" stroke="#666" width="150" height="65" rx="3" ry="3" class="actor"></rect><text x="275" y="896.5" class="actor" style="text-anchor: middle;">Lightrail</text></g><g><rect x="400" y="859" fill="#eaeaea" stroke="#666" width="150" height="65" rx="3" ry="3" class="actor"></rect><text x="475" y="896.5" class="actor" style="text-anchor: middle;">PaymentGateway</text></g></svg>